<?xml version="1.0" encoding="utf-8"?>
<!-- Generator: Adobe Illustrator 22.0.1, SVG Export Plug-In . SVG Version: 6.00 Build 0)  -->
<svg version="1.1" width="300" id="Layer_1" xmlns="http://www.w3.org/2000/svg" xmlns:xlink="http://www.w3.org/1999/xlink" x="0px" y="0px"
	 viewBox="0 0 390.4 227" style="enable-background:new 0 0 390.4 227;" xml:space="preserve">
<style type="text/css">
	.st0{fill:#0288d1;}
	.st1{fill:#ED1C24;}
</style>
<g id="Ebene_1" transform="matrix(-1,0,0,-1,902.25049,364.71875)">
	<polygon id="path2050" class="st0" points="902.3,268.9 635.7,268.9 635.7,331.3 511.9,234.5 635.7,137.7 635.7,200.2 902.3,200.2 
			"/>
</g>
<path id="X" class="st1" d="M334.9,46.3c0-0.9,3.8-5.3,8.4-9.7c4.6-4.5,9.1-8.8,9.9-9.7c0.8-0.8,0-5.7-1.9-10.8
	c-3.9-10.6-4.2-14.1-1.6-15.5c3.7-1.9,8.7,0.9,12.9,7.1l4.3,6.3l8-6.5c5.3-4.3,9-6.2,11-5.6c3.9,1.2,6.1,6,3.2,6.9
	c-3.3,0.9-17,18.2-17,21.5c0,1.5,2,5.6,4.3,9c1.7,2.4,3.9,4.3,3,5.7l-4.8,7c-0.9,1.4-4.3-2.3-8.4-5.8l-7-6.2l-7.8,7.7
	c-4.3,4.2-8.3,7.7-8.9,7.7C341.9,55.3,334.9,47.2,334.9,46.3z"/>
</svg>
