<?xml version="1.0" encoding="utf-8"?>
<!-- Generator: Adobe Illustrator 22.0.1, SVG Export Plug-In . SVG Version: 6.00 Build 0)  -->
<svg version="1.1" width="300" id="Layer_1" xmlns="http://www.w3.org/2000/svg" xmlns:xlink="http://www.w3.org/1999/xlink" x="0px" y="0px"
	 viewBox="0 0 390.4 227" style="enable-background:new 0 0 390.4 227;" xml:space="preserve">
<style type="text/css">
	.st0{fill:#0288d1;}
</style>
<g id="Ebene_1" transform="matrix(-1,0,0,-1,902.25049,364.71875)">
	<polygon id="path2050" class="st0" points="902.3,268.9 635.7,268.9 635.7,331.3 511.9,234.5 635.7,137.7 635.7,200.2 902.3,200.2 
			"/>
</g>
<g id="layer1" transform="translate(-192.905,-516.02064)">
	<path id="path2223" class="st0" d="M541.6,568.8c-0.8,0-4.2-5.1-7.6-11.4l-6.2-11.4l1.6-1.6c0.9-0.9,3.2-1.6,5.3-1.6h3.7l1.8,5.8
		l1.8,5.8l14.6-16c8-8.8,17.3-17.4,20.6-19.2l6-3.2l-12.1,13.8c-6.7,7.6-15.7,19.5-20.1,26.4S542.4,568.8,541.6,568.8z"/>
</g>
</svg>
