<svg xmlns="http://www.w3.org/2000/svg" width="558.39" height="596.92" viewBox="0 0 558.39 596.92">
  <defs>
    <style>
      .a {
        fill: #000102;
      }

      .b {
        fill: #0195fd;
      }

      .c {
        fill: #979596;
      }
    </style>
  </defs>
  <title>favicon</title>
  <g>
    <path class="a" d="M166.75,227.86c-6,8.56-11.42,16.8-17.3,24.73-5.1,6.89-10.69,13.44-16.06,20.14-2.85,3.56-6.34,3.92-10.19,1.89q-12.51-6.62-25-13.34-25.32-13.72-50.6-27.54c-8.77-4.8-10-8.7-5-17.29,23.23-40.58,46.62-81.07,69.79-121.69C123.53,75.2,139.25,62.92,162,58.59c23.52-4.49,45.2-14.81,66.68-25.2,7.16-3.47,14.59-6.59,21.21-10.92,9.36-6.12,19.4-6.23,29.72-5.24a415.72,415.72,0,0,0,78.72,0c9.94-.94,19.4-.46,28.84,4.78,25.34,14,51.57,26.3,79.53,34.39,4.92,1.43,9.9,2.67,14.92,3.67,18.74,3.75,31.92,14.93,41.29,31Q553.09,142.81,583,194.74c4.56,7.9,8.92,15.92,13.28,23.93,3.21,5.9,2.29,10.15-3.6,13.39q-38.74,21.34-77.73,42.28c-5.83,3.13-8.85,1.73-12-4.25a26,26,0,0,0-3.78-5.82C488.41,253.09,477.66,242,472,227l-1.52.21c-.79,4.27-1.73,8.51-2.3,12.81a60.61,60.61,0,0,0-.17,8q0,166,.09,332a36.74,36.74,0,0,0,2.32,11.51c1.59,4.64-.46,8.08-3.93,9.59-7.34,3.18-15,7-22.76,7.66-24.31,2.18-48.73,3.57-73.13,4.26q-40.22,1.14-80.46.4-45.13-.89-90.23-3.67c-8.7-.54-17.48-3.57-25.71-6.78-7.56-2.95-8.13-6.35-5.7-14.08a31.55,31.55,0,0,0,1.31-9.33q.09-164.72-.07-329.44C169.74,242.64,170.41,234.85,166.75,227.86ZM141,253.08l1-1,0,0a14.53,14.53,0,0,0,3.2-2.28c14.23-17.74,15.95-38.22,10.1-58.87-4.52-15.94-10.13-31.54-12.51-48-.24-1.69.38-3.5.6-5.26,3.51,20.19,9.12,39.62,18.75,57.9,7.7,14.61,11.17,30.64,11.2,47.07q.27,168.22,0,336.46c0,4.38-1.52,8.75-2,13.16-.18,1.55.09,3.89,1.1,4.69,2.53,2,5.42,4.17,8.49,4.91,8.51,2.06,17.13,4.42,25.81,4.9,26.74,1.5,53.51,2.58,80.28,3.06,24.31.43,48.65.25,73-.39,26.09-.69,52.2-1.73,78.22-3.67,8.51-.64,16.85-4.33,25.09-7.13,3.33-1.13,4.14-3.86,2.67-7.7a33.28,33.28,0,0,1-1.87-11.67q-.13-166.74-.05-333.47a109.65,109.65,0,0,1,7.64-41.34c4.15-10.27,9.76-20,13.18-30.51,4.56-14,7.62-28.46,11-41.54v6.09c-.32,1.45-.62,2.9-1,4.34-3.6,14.11-6.26,28.55-11.05,42.25-6.13,17.55-5.43,34.67.48,51.64,1.87,5.37,7,9.62,10.58,14.39l0-.05,1,1-.05-.05,1.06,2,0,0,1.55,2c2.46,3.74,5.13,7.36,7.32,11.25,3,5.4,3.36,5.77,8.7,2.89q37-20,73.94-40.12c6.7-3.66,7-5.18,3.32-11.75-11.38-20.27-22.56-40.66-34.23-60.77q-20.14-34.68-41-68.9c-8.3-13.54-20.55-21.87-36.34-24.82-4.55-.86-9-2.21-13.46-3.48C437,52,409.55,38.26,382.23,24.24a35.85,35.85,0,0,0-16.16-3.54c-18.12.16-36.23,1.41-54.35,1.67A304.51,304.51,0,0,1,280.34,21c-11-1-21,.4-31,6-24.95,13.84-50.88,25.72-78.5,33.44-3.82,1.07-7.67,2.14-11.58,2.83C139.72,66.7,126.4,78.37,116.83,95q-35.64,62-71.18,124c-3.36,5.86-2.84,7.69,3.21,11q15,8.32,30.14,16.49,22.34,12.09,44.71,24.1c2.23,1.2,4.68,2.64,6.57-.32,3.2-5,6.19-10.15,9.26-15.23l1.55-2Z" transform="translate(-39.7 -16.77)"/>
    <path class="b" d="M139.54,255c-3.07,5.08-6.06,10.22-9.26,15.23-1.89,3-4.34,1.52-6.57.32q-22.36-12-44.71-24.1Q63.91,238.29,48.86,230c-6-3.35-6.57-5.18-3.21-11q35.57-62,71.18-124c9.57-16.62,22.89-28.29,42.38-31.74,3.91-.69,7.76-1.76,11.58-2.83,27.62-7.72,53.55-19.6,78.5-33.44,10.07-5.59,20-7,31-6a304.51,304.51,0,0,0,31.38,1.38c18.12-.26,36.23-1.51,54.35-1.67a35.85,35.85,0,0,1,16.16,3.54C409.55,38.26,437,52,466.69,60.37c4.46,1.27,8.91,2.62,13.46,3.48,15.79,2.95,28,11.28,36.34,24.82q20.93,34.2,41,68.9c11.67,20.11,22.85,40.5,34.23,60.77,3.69,6.57,3.38,8.09-3.32,11.75q-36.91,20.16-73.94,40.12c-5.34,2.88-5.66,2.51-8.7-2.89-2.19-3.89-4.86-7.51-7.32-11.25l-1.55-2,0,0-1.06-2,.05.05-1-1,0,0c-.94-2.22-2-4.4-2.78-6.69-1.8-5.58-4.1-11.11-5-16.85-1.4-9.18,3.77-16.42,8.63-23.6,6-8.85,9.24-18.46,7.85-30.35-2.49,9.75-2.19,20-13.77,25.23.29-4.82.26-8.27.73-11.67,2.05-14.85,4.27-29.68,6.3-44.54.18-1.31-.65-2.76-1-4.14v-6.09c-3.4,13.08-6.46,27.55-11,41.54-3.42,10.49-9,20.24-13.18,30.51a109.65,109.65,0,0,0-7.64,41.34q-.06,166.74.05,333.47A33.28,33.28,0,0,0,466,590.91c1.47,3.84.66,6.57-2.67,7.7-8.24,2.8-16.58,6.49-25.09,7.13-26,1.94-52.13,3-78.22,3.67-24.31.64-48.65.82-73,.39-26.77-.48-53.54-1.56-80.28-3.06-8.68-.48-17.3-2.84-25.81-4.9-3.07-.74-6-2.87-8.49-4.91-1-.8-1.28-3.14-1.1-4.69.48-4.41,2-8.78,2-13.16q.18-168.24,0-336.46c0-16.43-3.5-32.46-11.2-47.07-9.63-18.28-15.24-37.71-18.76-57.9L142,134.44c-2.65,21.57,3.63,42.07,5.55,63.18-10.89-3.13-10.74-12.9-13.28-21.63-1.92,12.77,3.57,22.57,10.05,31.88,7.9,11.35,8.61,22.87,2.07,35-1.61,3-2.91,6.15-4.36,9.23l0,0-1,1,.05-.05Zm117.4-215,.06-.18C258.57,51,266.16,58,274.37,64c9.32,6.84,20.4,9,31.88,10.15,14.95,1.46,29.44,1,43.85-3.95,14.57-5,25.08-13.81,30.52-28.36q.61-3.42,1.21-6.83c1.32-4.46-1.46-6.79-5-6.78-9.9,0-19.78,1.09-29.68,1.19q-28.46.32-56.91,0c-9.41-.11-18.84-1.61-28.2-1.21C254.84,28.44,253.16,33.39,256.94,40.06ZM270.39,356a4,4,0,0,0-.83,1c-8.48,11.94-16.89,23.93-25.45,35.8-2.09,2.89-.74,4,1.75,5.18,21.54,10.52,44.09,15.94,68.14,13a49.34,49.34,0,0,0,33.53-18.57c11.25-14,17.73-30.54,22.27-47.56,5.12-19.22,9.33-38.76,12.61-58.39A601.07,601.07,0,0,0,390.69,194c.05-3.73-1.1-5-4.75-5-13-.11-26-.44-38.94-.66a21.76,21.76,0,0,0-3.15.46c.68,12.81,1.67,25.42,1.93,38,.38,18,.9,36,.09,53.89a386.33,386.33,0,0,1-5.19,50.5c-1.86,10.42-6.31,20.74-15.23,27.81a31.66,31.66,0,0,1-27.81,6.29C288.56,363.11,279.86,359.28,270.39,356ZM280.62,83.24c13.94,9.34,63.06,8.92,74.23.66C329.79,88.13,305.22,88.88,280.62,83.24Z" transform="translate(-39.7 -16.77)"/>
    <path class="c" d="M142.05,252.08c1.45-3.08,2.75-6.24,4.36-9.23,6.54-12.11,5.83-23.63-2.07-35-6.48-9.31-12-19.11-10.05-31.88,2.54,8.73,2.39,18.5,13.28,21.63-1.92-21.11-8.2-41.61-5.55-63.18l1.41,3.21c-.21,1.76-.83,3.57-.59,5.26,2.38,16.48,8,32.08,12.51,48,5.85,20.65,4.13,41.13-10.1,58.87A14.53,14.53,0,0,1,142.05,252.08Z" transform="translate(-39.7 -16.77)"/>
    <path class="c" d="M495.93,138.47c.36,1.38,1.19,2.83,1,4.14-2,14.86-4.25,29.69-6.3,44.54-.47,3.4-.44,6.85-.73,11.67,11.58-5.25,11.28-15.48,13.77-25.23,1.39,11.89-1.87,21.5-7.85,30.35-4.86,7.18-10,14.42-8.63,23.6.87,5.74,3.17,11.27,5,16.85.74,2.29,1.84,4.47,2.78,6.69-3.62-4.76-8.71-9-10.58-14.38-5.91-17-6.61-34.09-.48-51.64,4.79-13.7,7.45-28.14,11.05-42.25C495.31,141.37,495.61,139.92,495.93,138.47Z" transform="translate(-39.7 -16.77)"/>
    <path class="c" d="M495.9,252l1.06,2C496.61,253.38,496.26,252.7,495.9,252Z" transform="translate(-39.7 -16.77)"/>
    <path class="c" d="M139.54,255l1.55-2Z" transform="translate(-39.7 -16.77)"/>
    <path class="c" d="M496.93,254l1.55,2Z" transform="translate(-39.7 -16.77)"/>
    <path class="c" d="M494.92,251l1,1Z" transform="translate(-39.7 -16.77)"/>
    <path class="c" d="M141,253.08l1-1Z" transform="translate(-39.7 -16.77)"/>
    <path class="a" d="M270.39,356c9.47,3.32,18.17,7.15,27.25,9.35A31.66,31.66,0,0,0,325.45,359c8.92-7.07,13.37-17.39,15.23-27.81a386.33,386.33,0,0,0,5.19-50.5c.81-17.93.29-35.93-.09-53.89-.26-12.62-1.25-25.23-1.93-38a21.76,21.76,0,0,1,3.15-.46c13,.22,26,.55,38.94.66,3.65,0,4.8,1.27,4.75,5a601.07,601.07,0,0,1-8.28,92.43c-3.28,19.63-7.49,39.17-12.61,58.39-4.54,17-11,33.56-22.27,47.56A49.34,49.34,0,0,1,314,410.93c-24.05,2.91-46.6-2.51-68.14-13-2.49-1.21-3.84-2.29-1.75-5.18,8.56-11.87,17-23.86,25.45-35.8A4,4,0,0,1,270.39,356Z" transform="translate(-39.7 -16.77)"/>
    <path class="c" d="M380.62,41.82c-5.44,14.55-15.95,23.37-30.52,28.36-14.41,4.93-28.9,5.41-43.85,3.95C294.77,73,283.69,70.82,274.37,64c-8.21-6-15.8-13-17.37-24.1,4.55-5.54,10.8-5.55,17.1-5.1,8.29.6,16.57,2.07,24.84,2,21.43-.3,42.85-1.3,64.28-2C370,34.59,377.32,33.3,380.62,41.82Z" transform="translate(-39.7 -16.77)"/>
    <path class="a" d="M381.83,35c-3.76-5.67-9.79-5.5-15.12-4.65C344,34,321.22,33,298.45,32.86c-8.44,0-16.86-1.6-25.31-2.3a42.8,42.8,0,0,0-9.4.08c-7.26,1-8.17,2.48-6.8,9.42-3.78-6.67-2.1-11.62,5.12-11.92,9.36-.4,18.79,1.1,28.2,1.21q28.46.36,56.91,0c9.9-.1,19.78-1.17,29.68-1.19C380.37,28.2,383.15,30.53,381.83,35Z" transform="translate(-39.7 -16.77)"/>
    <path class="c" d="M280.62,83.24c24.6,5.64,49.17,4.89,74.23.66C343.68,92.16,294.56,92.58,280.62,83.24Z" transform="translate(-39.7 -16.77)"/>
  </g>
</svg>
